<svg xmlns="http://www.w3.org/2000/svg" xmlns:xlink="http://www.w3.org/1999/xlink" viewBox="0 0 1311 874"><defs><style>.cls-1{fill:none;}.cls-2{clip-path:url(#clip-path);}.cls-3{fill:#fff;}.cls-4{fill:#80e5d9;}.cls-5{fill:#5ddacb;}</style><clipPath id="clip-path" transform="translate(30 18.37)"><rect class="cls-1" width="1280" height="1024"/></clipPath></defs><g id="Layer_2" data-name="Layer 2"><g id="Layer_1-2" data-name="Layer 1"><g class="cls-2"><rect class="cls-3" width="1311" height="874"/><path class="cls-4" d="M1087.11,135a1.57,1.57,0,1,0-1.56-1.56A1.56,1.56,0,0,0,1087.11,135Z" transform="translate(30 18.37)"/><path class="cls-4" d="M1105.32,135a1.57,1.57,0,1,0-1.56-1.56A1.56,1.56,0,0,0,1105.32,135Z" transform="translate(30 18.37)"/><path class="cls-4" d="M1123.53,135a1.57,1.57,0,1,0-1.56-1.56A1.56,1.56,0,0,0,1123.53,135Z" transform="translate(30 18.37)"/><path class="cls-4" d="M1141.74,135a1.57,1.57,0,1,0-1.57-1.56A1.57,1.57,0,0,0,1141.74,135Z" transform="translate(30 18.37)"/><path class="cls-4" d="M1160,135a1.57,1.57,0,1,0-1.57-1.56A1.56,1.56,0,0,0,1160,135Z" transform="translate(30 18.37)"/><path class="cls-4" d="M1178.16,135a1.57,1.57,0,1,0-1.57-1.56A1.56,1.56,0,0,0,1178.16,135Z" transform="translate(30 18.37)"/><path class="cls-4" d="M1196.36,135a1.57,1.57,0,1,0-1.56-1.56A1.56,1.56,0,0,0,1196.36,135Z" transform="translate(30 18.37)"/><path class="cls-4" d="M1214.57,135a1.57,1.57,0,1,0-1.56-1.56A1.56,1.56,0,0,0,1214.57,135Z" transform="translate(30 18.37)"/><path class="cls-4" d="M1232.78,135a1.57,1.57,0,1,0-1.56-1.56A1.56,1.56,0,0,0,1232.78,135Z" transform="translate(30 18.37)"/><path class="cls-4" d="M1087.11,153.25a1.57,1.57,0,1,0-1.56-1.56A1.56,1.56,0,0,0,1087.11,153.25Z" transform="translate(30 18.37)"/><path class="cls-4" d="M1105.32,153.25a1.57,1.57,0,1,0-1.56-1.56A1.56,1.56,0,0,0,1105.32,153.25Z" transform="translate(30 18.37)"/><path class="cls-4" d="M1123.53,153.25a1.57,1.57,0,1,0-1.56-1.56A1.56,1.56,0,0,0,1123.53,153.25Z" transform="translate(30 18.37)"/><path class="cls-4" d="M1141.74,153.25a1.57,1.57,0,1,0-1.57-1.56A1.57,1.57,0,0,0,1141.74,153.25Z" transform="translate(30 18.37)"/><path class="cls-4" d="M1160,153.25a1.57,1.57,0,1,0-1.57-1.56A1.56,1.56,0,0,0,1160,153.25Z" transform="translate(30 18.37)"/><path class="cls-4" d="M1178.16,153.25a1.57,1.57,0,1,0-1.57-1.56A1.56,1.56,0,0,0,1178.16,153.25Z" transform="translate(30 18.37)"/><path class="cls-4" d="M1196.36,153.25a1.57,1.57,0,1,0-1.56-1.56A1.56,1.56,0,0,0,1196.36,153.25Z" transform="translate(30 18.37)"/><path class="cls-4" d="M1214.57,153.25a1.57,1.57,0,1,0-1.56-1.56A1.56,1.56,0,0,0,1214.57,153.25Z" transform="translate(30 18.37)"/><path class="cls-4" d="M1232.78,153.25a1.57,1.57,0,1,0-1.56-1.56A1.56,1.56,0,0,0,1232.78,153.25Z" transform="translate(30 18.37)"/><path class="cls-4" d="M1087.11,171.46a1.57,1.57,0,1,0-1.56-1.57A1.57,1.57,0,0,0,1087.11,171.46Z" transform="translate(30 18.37)"/><path class="cls-4" d="M1105.32,171.46a1.57,1.57,0,1,0-1.56-1.57A1.57,1.57,0,0,0,1105.32,171.46Z" transform="translate(30 18.37)"/><path class="cls-4" d="M1123.53,171.46a1.57,1.57,0,1,0-1.56-1.57A1.57,1.57,0,0,0,1123.53,171.46Z" transform="translate(30 18.37)"/><path class="cls-4" d="M1141.74,171.46a1.57,1.57,0,1,0-1.57-1.57A1.57,1.57,0,0,0,1141.74,171.46Z" transform="translate(30 18.37)"/><path class="cls-4" d="M1160,171.46a1.57,1.57,0,1,0-1.57-1.57A1.56,1.56,0,0,0,1160,171.46Z" transform="translate(30 18.37)"/><path class="cls-4" d="M1178.16,171.46a1.57,1.57,0,1,0-1.57-1.57A1.56,1.56,0,0,0,1178.16,171.46Z" transform="translate(30 18.37)"/><path class="cls-4" d="M1196.36,171.46a1.57,1.57,0,1,0-1.56-1.57A1.57,1.57,0,0,0,1196.36,171.46Z" transform="translate(30 18.37)"/><path class="cls-4" d="M1214.57,171.46a1.57,1.57,0,1,0-1.56-1.57A1.57,1.57,0,0,0,1214.57,171.46Z" transform="translate(30 18.37)"/><path class="cls-4" d="M1232.78,171.46a1.57,1.57,0,1,0-1.56-1.57A1.57,1.57,0,0,0,1232.78,171.46Z" transform="translate(30 18.37)"/><path class="cls-4" d="M1087.11,189.67a1.57,1.57,0,1,0-1.56-1.57A1.57,1.57,0,0,0,1087.11,189.67Z" transform="translate(30 18.37)"/><path class="cls-4" d="M1105.32,189.67a1.57,1.57,0,1,0-1.56-1.57A1.57,1.57,0,0,0,1105.32,189.67Z" transform="translate(30 18.37)"/><path class="cls-4" d="M1123.53,189.67a1.57,1.57,0,1,0-1.56-1.57A1.57,1.57,0,0,0,1123.53,189.67Z" transform="translate(30 18.37)"/><path class="cls-4" d="M1141.74,189.67a1.57,1.57,0,1,0-1.57-1.57A1.57,1.57,0,0,0,1141.74,189.67Z" transform="translate(30 18.37)"/><path class="cls-4" d="M1160,189.67a1.57,1.57,0,1,0-1.57-1.57A1.56,1.56,0,0,0,1160,189.67Z" transform="translate(30 18.37)"/><path class="cls-4" d="M1178.16,189.67a1.57,1.57,0,1,0-1.57-1.57A1.56,1.56,0,0,0,1178.16,189.67Z" transform="translate(30 18.37)"/><path class="cls-4" d="M1196.36,189.67a1.57,1.57,0,1,0-1.56-1.57A1.57,1.57,0,0,0,1196.36,189.67Z" transform="translate(30 18.37)"/><path class="cls-4" d="M1214.57,189.67a1.57,1.57,0,1,0-1.56-1.57A1.57,1.57,0,0,0,1214.57,189.67Z" transform="translate(30 18.37)"/><path class="cls-4" d="M1232.78,189.67a1.57,1.57,0,1,0-1.56-1.57A1.57,1.57,0,0,0,1232.78,189.67Z" transform="translate(30 18.37)"/><path class="cls-4" d="M1087.11,207.88a1.57,1.57,0,1,0-1.56-1.57A1.57,1.57,0,0,0,1087.11,207.88Z" transform="translate(30 18.37)"/><path class="cls-4" d="M1105.32,207.88a1.57,1.57,0,1,0-1.56-1.57A1.57,1.57,0,0,0,1105.32,207.88Z" transform="translate(30 18.37)"/><path class="cls-4" d="M1123.53,207.88a1.57,1.57,0,1,0-1.56-1.57A1.57,1.57,0,0,0,1123.53,207.88Z" transform="translate(30 18.37)"/><path class="cls-4" d="M1141.74,207.88a1.57,1.57,0,1,0-1.57-1.57A1.57,1.57,0,0,0,1141.74,207.88Z" transform="translate(30 18.37)"/><path class="cls-4" d="M1160,207.88a1.57,1.57,0,1,0-1.57-1.57A1.56,1.56,0,0,0,1160,207.88Z" transform="translate(30 18.37)"/><path class="cls-4" d="M1178.16,207.88a1.57,1.57,0,1,0-1.57-1.57A1.56,1.56,0,0,0,1178.16,207.88Z" transform="translate(30 18.37)"/><path class="cls-4" d="M1196.36,207.88a1.57,1.57,0,1,0-1.56-1.57A1.57,1.57,0,0,0,1196.36,207.88Z" transform="translate(30 18.37)"/><path class="cls-4" d="M1214.57,207.88a1.57,1.57,0,1,0-1.56-1.57A1.57,1.57,0,0,0,1214.57,207.88Z" transform="translate(30 18.37)"/><path class="cls-4" d="M1232.78,207.88a1.57,1.57,0,1,0-1.56-1.57A1.57,1.57,0,0,0,1232.78,207.88Z" transform="translate(30 18.37)"/><path class="cls-4" d="M1087.11,226.09a1.57,1.57,0,1,0-1.56-1.57A1.57,1.57,0,0,0,1087.11,226.09Z" transform="translate(30 18.37)"/><path class="cls-4" d="M1105.32,226.09a1.57,1.57,0,1,0-1.56-1.57A1.57,1.57,0,0,0,1105.32,226.09Z" transform="translate(30 18.37)"/><path class="cls-4" d="M1123.53,226.09a1.57,1.57,0,1,0-1.56-1.57A1.57,1.57,0,0,0,1123.53,226.09Z" transform="translate(30 18.37)"/><path class="cls-4" d="M1141.74,226.09a1.57,1.57,0,1,0-1.57-1.57A1.58,1.58,0,0,0,1141.74,226.09Z" transform="translate(30 18.37)"/><path class="cls-4" d="M1160,226.09a1.57,1.57,0,1,0-1.57-1.57A1.57,1.57,0,0,0,1160,226.09Z" transform="translate(30 18.37)"/><path class="cls-4" d="M1178.16,226.09a1.57,1.57,0,1,0-1.57-1.57A1.57,1.57,0,0,0,1178.16,226.09Z" transform="translate(30 18.37)"/><path class="cls-4" d="M1196.36,226.09a1.57,1.57,0,1,0-1.56-1.57A1.57,1.57,0,0,0,1196.36,226.09Z" transform="translate(30 18.37)"/><path class="cls-4" d="M1214.57,226.09a1.57,1.57,0,1,0-1.56-1.57A1.57,1.57,0,0,0,1214.57,226.09Z" transform="translate(30 18.37)"/><path class="cls-4" d="M1232.78,226.09a1.57,1.57,0,1,0-1.56-1.57A1.57,1.57,0,0,0,1232.78,226.09Z" transform="translate(30 18.37)"/><path class="cls-4" d="M1087.11,244.29a1.57,1.57,0,1,0-1.56-1.56A1.56,1.56,0,0,0,1087.11,244.29Z" transform="translate(30 18.37)"/><path class="cls-4" d="M1105.32,244.29a1.57,1.57,0,1,0-1.56-1.56A1.56,1.56,0,0,0,1105.32,244.29Z" transform="translate(30 18.37)"/><path class="cls-4" d="M1123.53,244.29a1.57,1.57,0,1,0-1.56-1.56A1.56,1.56,0,0,0,1123.53,244.29Z" transform="translate(30 18.37)"/><path class="cls-4" d="M1141.74,244.29a1.57,1.57,0,1,0-1.57-1.56A1.57,1.57,0,0,0,1141.74,244.29Z" transform="translate(30 18.37)"/><path class="cls-4" d="M1160,244.29a1.57,1.57,0,1,0-1.57-1.56A1.56,1.56,0,0,0,1160,244.29Z" transform="translate(30 18.37)"/><path class="cls-4" d="M1178.16,244.29a1.57,1.57,0,1,0-1.57-1.56A1.56,1.56,0,0,0,1178.16,244.29Z" transform="translate(30 18.37)"/><path class="cls-4" d="M1196.36,244.29a1.57,1.57,0,1,0-1.56-1.56A1.56,1.56,0,0,0,1196.36,244.29Z" transform="translate(30 18.37)"/><path class="cls-4" d="M1214.57,244.29a1.57,1.57,0,1,0-1.56-1.56A1.56,1.56,0,0,0,1214.57,244.29Z" transform="translate(30 18.37)"/><path class="cls-4" d="M1232.78,244.29a1.57,1.57,0,1,0-1.56-1.56A1.56,1.56,0,0,0,1232.78,244.29Z" transform="translate(30 18.37)"/><path class="cls-4" d="M1087.11,262.5a1.57,1.57,0,1,0-1.56-1.56A1.56,1.56,0,0,0,1087.11,262.5Z" transform="translate(30 18.37)"/><path class="cls-4" d="M1105.32,262.5a1.57,1.57,0,1,0-1.56-1.56A1.56,1.56,0,0,0,1105.32,262.5Z" transform="translate(30 18.37)"/><path class="cls-4" d="M1123.53,262.5a1.57,1.57,0,1,0-1.56-1.56A1.56,1.56,0,0,0,1123.53,262.5Z" transform="translate(30 18.37)"/><path class="cls-4" d="M1141.74,262.5a1.57,1.57,0,1,0-1.57-1.56A1.57,1.57,0,0,0,1141.74,262.5Z" transform="translate(30 18.37)"/><path class="cls-4" d="M1160,262.5a1.57,1.57,0,1,0-1.57-1.56A1.56,1.56,0,0,0,1160,262.5Z" transform="translate(30 18.37)"/><path class="cls-4" d="M1178.16,262.5a1.57,1.57,0,1,0-1.57-1.56A1.56,1.56,0,0,0,1178.16,262.5Z" transform="translate(30 18.37)"/><path class="cls-4" d="M1196.36,262.5a1.57,1.57,0,1,0-1.56-1.56A1.56,1.56,0,0,0,1196.36,262.5Z" transform="translate(30 18.37)"/><path class="cls-4" d="M1214.57,262.5a1.57,1.57,0,1,0-1.56-1.56A1.56,1.56,0,0,0,1214.57,262.5Z" transform="translate(30 18.37)"/><path class="cls-4" d="M1232.78,262.5a1.57,1.57,0,1,0-1.56-1.56A1.56,1.56,0,0,0,1232.78,262.5Z" transform="translate(30 18.37)"/><path class="cls-4" d="M1087.11,280.71a1.57,1.57,0,1,0-1.56-1.57A1.57,1.57,0,0,0,1087.11,280.71Z" transform="translate(30 18.37)"/><path class="cls-4" d="M1105.32,280.71a1.57,1.57,0,1,0-1.56-1.57A1.57,1.57,0,0,0,1105.32,280.71Z" transform="translate(30 18.37)"/><path class="cls-4" d="M1123.53,280.71a1.57,1.57,0,1,0-1.56-1.57A1.57,1.57,0,0,0,1123.53,280.71Z" transform="translate(30 18.37)"/><path class="cls-4" d="M1141.74,280.71a1.57,1.57,0,1,0-1.57-1.57A1.57,1.57,0,0,0,1141.74,280.71Z" transform="translate(30 18.37)"/><path class="cls-4" d="M1160,280.71a1.57,1.57,0,1,0-1.57-1.57A1.56,1.56,0,0,0,1160,280.71Z" transform="translate(30 18.37)"/><path class="cls-4" d="M1178.16,280.71a1.57,1.57,0,1,0-1.57-1.57A1.56,1.56,0,0,0,1178.16,280.71Z" transform="translate(30 18.37)"/><path class="cls-4" d="M1196.36,280.71a1.57,1.57,0,1,0-1.56-1.57A1.57,1.57,0,0,0,1196.36,280.71Z" transform="translate(30 18.37)"/><path class="cls-4" d="M1214.57,280.71a1.57,1.57,0,1,0-1.56-1.57A1.57,1.57,0,0,0,1214.57,280.71Z" transform="translate(30 18.37)"/><path class="cls-4" d="M1232.78,280.71a1.57,1.57,0,1,0-1.56-1.57A1.57,1.57,0,0,0,1232.78,280.71Z" transform="translate(30 18.37)"/><path class="cls-4" d="M1087.11,298.92a1.57,1.57,0,1,0-1.56-1.57A1.57,1.57,0,0,0,1087.11,298.92Z" transform="translate(30 18.37)"/><path class="cls-4" d="M1105.32,298.92a1.57,1.57,0,1,0-1.56-1.57A1.57,1.57,0,0,0,1105.32,298.92Z" transform="translate(30 18.37)"/><path class="cls-4" d="M1123.53,298.92a1.57,1.57,0,1,0-1.56-1.57A1.57,1.57,0,0,0,1123.53,298.92Z" transform="translate(30 18.37)"/><path class="cls-4" d="M1141.74,298.92a1.57,1.57,0,1,0-1.57-1.57A1.57,1.57,0,0,0,1141.74,298.92Z" transform="translate(30 18.37)"/><path class="cls-4" d="M1160,298.92a1.57,1.57,0,1,0-1.57-1.57A1.56,1.56,0,0,0,1160,298.92Z" transform="translate(30 18.37)"/><path class="cls-4" d="M1178.16,298.92a1.57,1.57,0,1,0-1.57-1.57A1.56,1.56,0,0,0,1178.16,298.92Z" transform="translate(30 18.37)"/><path class="cls-4" d="M1196.36,298.92a1.57,1.57,0,1,0-1.56-1.57A1.57,1.57,0,0,0,1196.36,298.92Z" transform="translate(30 18.37)"/><path class="cls-4" d="M1214.57,298.92a1.57,1.57,0,1,0-1.56-1.57A1.57,1.57,0,0,0,1214.57,298.92Z" transform="translate(30 18.37)"/><path class="cls-4" d="M1232.78,298.92a1.57,1.57,0,1,0-1.56-1.57A1.57,1.57,0,0,0,1232.78,298.92Z" transform="translate(30 18.37)"/><path class="cls-4" d="M1087.11,317.13a1.57,1.57,0,1,0-1.56-1.57A1.57,1.57,0,0,0,1087.11,317.13Z" transform="translate(30 18.37)"/><path class="cls-4" d="M1105.32,317.13a1.57,1.57,0,1,0-1.56-1.57A1.57,1.57,0,0,0,1105.32,317.13Z" transform="translate(30 18.37)"/><path class="cls-4" d="M1123.53,317.13a1.57,1.57,0,1,0-1.56-1.57A1.57,1.57,0,0,0,1123.53,317.13Z" transform="translate(30 18.37)"/><path class="cls-4" d="M1141.74,317.13a1.57,1.57,0,1,0-1.57-1.57A1.57,1.57,0,0,0,1141.74,317.13Z" transform="translate(30 18.37)"/><path class="cls-4" d="M1160,317.13a1.57,1.57,0,1,0-1.57-1.57A1.56,1.56,0,0,0,1160,317.13Z" transform="translate(30 18.37)"/><path class="cls-4" d="M1178.16,317.13a1.57,1.57,0,1,0-1.57-1.57A1.56,1.56,0,0,0,1178.16,317.13Z" transform="translate(30 18.37)"/><path class="cls-4" d="M1196.36,317.13a1.57,1.57,0,1,0-1.56-1.57A1.57,1.57,0,0,0,1196.36,317.13Z" transform="translate(30 18.37)"/><path class="cls-4" d="M1214.57,317.13a1.57,1.57,0,1,0-1.56-1.57A1.57,1.57,0,0,0,1214.57,317.13Z" transform="translate(30 18.37)"/><path class="cls-4" d="M1232.78,317.13a1.57,1.57,0,1,0-1.56-1.57A1.57,1.57,0,0,0,1232.78,317.13Z" transform="translate(30 18.37)"/><path class="cls-4" d="M1087.11,335.33a1.57,1.57,0,1,0-1.56-1.56A1.56,1.56,0,0,0,1087.11,335.33Z" transform="translate(30 18.37)"/><path class="cls-4" d="M1105.32,335.33a1.57,1.57,0,1,0-1.56-1.56A1.56,1.56,0,0,0,1105.32,335.33Z" transform="translate(30 18.37)"/><path class="cls-4" d="M1123.53,335.33a1.57,1.57,0,1,0-1.56-1.56A1.56,1.56,0,0,0,1123.53,335.33Z" transform="translate(30 18.37)"/><path class="cls-4" d="M1141.74,335.33a1.57,1.57,0,1,0-1.57-1.56A1.57,1.57,0,0,0,1141.74,335.33Z" transform="translate(30 18.37)"/><path class="cls-4" d="M1160,335.33a1.57,1.57,0,1,0-1.57-1.56A1.56,1.56,0,0,0,1160,335.33Z" transform="translate(30 18.37)"/><path class="cls-4" d="M1178.16,335.33a1.57,1.57,0,1,0-1.57-1.56A1.56,1.56,0,0,0,1178.16,335.33Z" transform="translate(30 18.37)"/><path class="cls-4" d="M1196.36,335.33a1.57,1.57,0,1,0-1.56-1.56A1.56,1.56,0,0,0,1196.36,335.33Z" transform="translate(30 18.37)"/><path class="cls-4" d="M1214.57,335.33a1.57,1.57,0,1,0-1.56-1.56A1.56,1.56,0,0,0,1214.57,335.33Z" transform="translate(30 18.37)"/><path class="cls-4" d="M1232.78,335.33a1.57,1.57,0,1,0-1.56-1.56A1.56,1.56,0,0,0,1232.78,335.33Z" transform="translate(30 18.37)"/><path class="cls-4" d="M1087.11,353.54a1.57,1.57,0,1,0-1.56-1.56A1.56,1.56,0,0,0,1087.11,353.54Z" transform="translate(30 18.37)"/><path class="cls-4" d="M1105.32,353.54a1.57,1.57,0,1,0-1.56-1.56A1.56,1.56,0,0,0,1105.32,353.54Z" transform="translate(30 18.37)"/><path class="cls-4" d="M1123.53,353.54A1.57,1.57,0,1,0,1122,352,1.56,1.56,0,0,0,1123.53,353.54Z" transform="translate(30 18.37)"/><path class="cls-4" d="M1141.74,353.54a1.57,1.57,0,1,0-1.57-1.56A1.57,1.57,0,0,0,1141.74,353.54Z" transform="translate(30 18.37)"/><path class="cls-4" d="M1160,353.54a1.57,1.57,0,1,0-1.57-1.56A1.56,1.56,0,0,0,1160,353.54Z" transform="translate(30 18.37)"/><path class="cls-4" d="M1178.16,353.54a1.57,1.57,0,1,0-1.57-1.56A1.56,1.56,0,0,0,1178.16,353.54Z" transform="translate(30 18.37)"/><path class="cls-4" d="M1196.36,353.54a1.57,1.57,0,1,0-1.56-1.56A1.56,1.56,0,0,0,1196.36,353.54Z" transform="translate(30 18.37)"/><path class="cls-4" d="M1214.57,353.54A1.57,1.57,0,1,0,1213,352,1.56,1.56,0,0,0,1214.57,353.54Z" transform="translate(30 18.37)"/><path class="cls-4" d="M1232.78,353.54a1.57,1.57,0,1,0-1.56-1.56A1.56,1.56,0,0,0,1232.78,353.54Z" transform="translate(30 18.37)"/><path class="cls-4" d="M1087.11,371.75a1.57,1.57,0,1,0-1.56-1.56A1.56,1.56,0,0,0,1087.11,371.75Z" transform="translate(30 18.37)"/><path class="cls-4" d="M1105.32,371.75a1.57,1.57,0,1,0-1.56-1.56A1.56,1.56,0,0,0,1105.32,371.75Z" transform="translate(30 18.37)"/><path class="cls-4" d="M1123.53,371.75a1.57,1.57,0,1,0-1.56-1.56A1.56,1.56,0,0,0,1123.53,371.75Z" transform="translate(30 18.37)"/><path class="cls-4" d="M1141.74,371.75a1.57,1.57,0,1,0-1.57-1.56A1.57,1.57,0,0,0,1141.74,371.75Z" transform="translate(30 18.37)"/><path class="cls-4" d="M1160,371.75a1.57,1.57,0,1,0-1.57-1.56A1.56,1.56,0,0,0,1160,371.75Z" transform="translate(30 18.37)"/><path class="cls-4" d="M1178.16,371.75a1.57,1.57,0,1,0-1.57-1.56A1.56,1.56,0,0,0,1178.16,371.75Z" transform="translate(30 18.37)"/><path class="cls-4" d="M1196.36,371.75a1.57,1.57,0,1,0-1.56-1.56A1.56,1.56,0,0,0,1196.36,371.75Z" transform="translate(30 18.37)"/><path class="cls-4" d="M1214.57,371.75a1.57,1.57,0,1,0-1.56-1.56A1.56,1.56,0,0,0,1214.57,371.75Z" transform="translate(30 18.37)"/><path class="cls-4" d="M1232.78,371.75a1.57,1.57,0,1,0-1.56-1.56A1.56,1.56,0,0,0,1232.78,371.75Z" transform="translate(30 18.37)"/><path class="cls-4" d="M1087.11,390a1.57,1.57,0,1,0-1.56-1.57A1.57,1.57,0,0,0,1087.11,390Z" transform="translate(30 18.37)"/><path class="cls-4" d="M1105.32,390a1.57,1.57,0,1,0-1.56-1.57A1.57,1.57,0,0,0,1105.32,390Z" transform="translate(30 18.37)"/><path class="cls-4" d="M1123.53,390a1.57,1.57,0,1,0-1.56-1.57A1.57,1.57,0,0,0,1123.53,390Z" transform="translate(30 18.37)"/><path class="cls-4" d="M1141.74,390a1.57,1.57,0,1,0-1.57-1.57A1.57,1.57,0,0,0,1141.74,390Z" transform="translate(30 18.37)"/><path class="cls-4" d="M1160,390a1.57,1.57,0,1,0-1.57-1.57A1.56,1.56,0,0,0,1160,390Z" transform="translate(30 18.37)"/><path class="cls-4" d="M1178.16,390a1.57,1.57,0,1,0-1.57-1.57A1.56,1.56,0,0,0,1178.16,390Z" transform="translate(30 18.37)"/><path class="cls-4" d="M1196.36,390a1.57,1.57,0,1,0-1.56-1.57A1.57,1.57,0,0,0,1196.36,390Z" transform="translate(30 18.37)"/><path class="cls-4" d="M1214.57,390a1.57,1.57,0,1,0-1.56-1.57A1.57,1.57,0,0,0,1214.57,390Z" transform="translate(30 18.37)"/><path class="cls-4" d="M1232.78,390a1.57,1.57,0,1,0-1.56-1.57A1.57,1.57,0,0,0,1232.78,390Z" transform="translate(30 18.37)"/><path class="cls-4" d="M1087.11,408.17a1.57,1.57,0,1,0-1.56-1.57A1.57,1.57,0,0,0,1087.11,408.17Z" transform="translate(30 18.37)"/><path class="cls-4" d="M1105.32,408.17a1.57,1.57,0,1,0-1.56-1.57A1.57,1.57,0,0,0,1105.32,408.17Z" transform="translate(30 18.37)"/><path class="cls-4" d="M1123.53,408.17a1.57,1.57,0,1,0-1.56-1.57A1.57,1.57,0,0,0,1123.53,408.17Z" transform="translate(30 18.37)"/><path class="cls-4" d="M1141.74,408.17a1.57,1.57,0,1,0-1.57-1.57A1.57,1.57,0,0,0,1141.74,408.17Z" transform="translate(30 18.37)"/><path class="cls-4" d="M1160,408.17a1.57,1.57,0,1,0-1.57-1.57A1.56,1.56,0,0,0,1160,408.17Z" transform="translate(30 18.37)"/><path class="cls-4" d="M1178.16,408.17a1.57,1.57,0,1,0-1.57-1.57A1.56,1.56,0,0,0,1178.16,408.17Z" transform="translate(30 18.37)"/><path class="cls-4" d="M1196.36,408.17a1.57,1.57,0,1,0-1.56-1.57A1.57,1.57,0,0,0,1196.36,408.17Z" transform="translate(30 18.37)"/><path class="cls-4" d="M1214.57,408.17a1.57,1.57,0,1,0-1.56-1.57A1.57,1.57,0,0,0,1214.57,408.17Z" transform="translate(30 18.37)"/><path class="cls-4" d="M1232.78,408.17a1.57,1.57,0,1,0-1.56-1.57A1.57,1.57,0,0,0,1232.78,408.17Z" transform="translate(30 18.37)"/><path class="cls-4" d="M1087.11,426.38a1.57,1.57,0,1,0-1.56-1.57A1.57,1.57,0,0,0,1087.11,426.38Z" transform="translate(30 18.37)"/><path class="cls-4" d="M1105.32,426.38a1.57,1.57,0,1,0-1.56-1.57A1.57,1.57,0,0,0,1105.32,426.38Z" transform="translate(30 18.37)"/><path class="cls-4" d="M1123.53,426.38a1.57,1.57,0,1,0-1.56-1.57A1.57,1.57,0,0,0,1123.53,426.38Z" transform="translate(30 18.37)"/><path class="cls-4" d="M1141.74,426.38a1.57,1.57,0,1,0-1.57-1.57A1.57,1.57,0,0,0,1141.74,426.38Z" transform="translate(30 18.37)"/><path class="cls-4" d="M1160,426.38a1.57,1.57,0,1,0-1.57-1.57A1.56,1.56,0,0,0,1160,426.38Z" transform="translate(30 18.37)"/><path class="cls-4" d="M1178.16,426.38a1.57,1.57,0,1,0-1.57-1.57A1.56,1.56,0,0,0,1178.16,426.38Z" transform="translate(30 18.37)"/><path class="cls-4" d="M1196.36,426.38a1.57,1.57,0,1,0-1.56-1.57A1.57,1.57,0,0,0,1196.36,426.38Z" transform="translate(30 18.37)"/><path class="cls-4" d="M1214.57,426.38a1.57,1.57,0,1,0-1.56-1.57A1.57,1.57,0,0,0,1214.57,426.38Z" transform="translate(30 18.37)"/><path class="cls-4" d="M1232.78,426.38a1.57,1.57,0,1,0-1.56-1.57A1.57,1.57,0,0,0,1232.78,426.38Z" transform="translate(30 18.37)"/><path class="cls-4" d="M1087.11,444.58a1.57,1.57,0,1,0-1.56-1.56A1.56,1.56,0,0,0,1087.11,444.58Z" transform="translate(30 18.37)"/><path class="cls-4" d="M1105.32,444.58a1.57,1.57,0,1,0-1.56-1.56A1.56,1.56,0,0,0,1105.32,444.58Z" transform="translate(30 18.37)"/><path class="cls-4" d="M1123.53,444.58A1.57,1.57,0,1,0,1122,443,1.56,1.56,0,0,0,1123.53,444.58Z" transform="translate(30 18.37)"/><path class="cls-4" d="M1141.74,444.58a1.57,1.57,0,1,0-1.57-1.56A1.57,1.57,0,0,0,1141.74,444.58Z" transform="translate(30 18.37)"/><path class="cls-4" d="M1160,444.58a1.57,1.57,0,1,0-1.57-1.56A1.56,1.56,0,0,0,1160,444.58Z" transform="translate(30 18.37)"/><path class="cls-4" d="M1178.16,444.58a1.57,1.57,0,1,0-1.57-1.56A1.56,1.56,0,0,0,1178.16,444.58Z" transform="translate(30 18.37)"/><path class="cls-4" d="M1196.36,444.58a1.57,1.57,0,1,0-1.56-1.56A1.56,1.56,0,0,0,1196.36,444.58Z" transform="translate(30 18.37)"/><path class="cls-4" d="M1214.57,444.58A1.57,1.57,0,1,0,1213,443,1.56,1.56,0,0,0,1214.57,444.58Z" transform="translate(30 18.37)"/><path class="cls-4" d="M1232.78,444.58a1.57,1.57,0,1,0-1.56-1.56A1.56,1.56,0,0,0,1232.78,444.58Z" transform="translate(30 18.37)"/><path class="cls-4" d="M1087.11,462.79a1.57,1.57,0,1,0-1.56-1.56A1.56,1.56,0,0,0,1087.11,462.79Z" transform="translate(30 18.37)"/><path class="cls-4" d="M1105.32,462.79a1.57,1.57,0,1,0-1.56-1.56A1.56,1.56,0,0,0,1105.32,462.79Z" transform="translate(30 18.37)"/><path class="cls-4" d="M1123.53,462.79a1.57,1.57,0,1,0-1.56-1.56A1.56,1.56,0,0,0,1123.53,462.79Z" transform="translate(30 18.37)"/><path class="cls-4" d="M1141.74,462.79a1.57,1.57,0,1,0-1.57-1.56A1.57,1.57,0,0,0,1141.74,462.79Z" transform="translate(30 18.37)"/><path class="cls-4" d="M1160,462.79a1.57,1.57,0,1,0-1.57-1.56A1.56,1.56,0,0,0,1160,462.79Z" transform="translate(30 18.37)"/><path class="cls-4" d="M1178.16,462.79a1.57,1.57,0,1,0-1.57-1.56A1.56,1.56,0,0,0,1178.16,462.79Z" transform="translate(30 18.37)"/><path class="cls-4" d="M1196.36,462.79a1.57,1.57,0,1,0-1.56-1.56A1.56,1.56,0,0,0,1196.36,462.79Z" transform="translate(30 18.37)"/><path class="cls-4" d="M1214.57,462.79a1.57,1.57,0,1,0-1.56-1.56A1.56,1.56,0,0,0,1214.57,462.79Z" transform="translate(30 18.37)"/><path class="cls-4" d="M1232.78,462.79a1.57,1.57,0,1,0-1.56-1.56A1.56,1.56,0,0,0,1232.78,462.79Z" transform="translate(30 18.37)"/><path class="cls-4" d="M1087.11,481a1.57,1.57,0,1,0-1.56-1.56A1.56,1.56,0,0,0,1087.11,481Z" transform="translate(30 18.37)"/><path class="cls-4" d="M1105.32,481a1.57,1.57,0,1,0-1.56-1.56A1.56,1.56,0,0,0,1105.32,481Z" transform="translate(30 18.37)"/><path class="cls-4" d="M1123.53,481a1.57,1.57,0,1,0-1.56-1.56A1.56,1.56,0,0,0,1123.53,481Z" transform="translate(30 18.37)"/><path class="cls-4" d="M1141.74,481a1.57,1.57,0,1,0-1.57-1.56A1.57,1.57,0,0,0,1141.74,481Z" transform="translate(30 18.37)"/><path class="cls-4" d="M1160,481a1.57,1.57,0,1,0-1.57-1.56A1.56,1.56,0,0,0,1160,481Z" transform="translate(30 18.37)"/><path class="cls-4" d="M1178.16,481a1.57,1.57,0,1,0-1.57-1.56A1.56,1.56,0,0,0,1178.16,481Z" transform="translate(30 18.37)"/><path class="cls-4" d="M1196.36,481a1.57,1.57,0,1,0-1.56-1.56A1.56,1.56,0,0,0,1196.36,481Z" transform="translate(30 18.37)"/><path class="cls-4" d="M1214.57,481a1.57,1.57,0,1,0-1.56-1.56A1.56,1.56,0,0,0,1214.57,481Z" transform="translate(30 18.37)"/><path class="cls-4" d="M1232.78,481a1.57,1.57,0,1,0-1.56-1.56A1.56,1.56,0,0,0,1232.78,481Z" transform="translate(30 18.37)"/><path class="cls-4" d="M1087.11,499.21a1.57,1.57,0,1,0-1.56-1.57A1.57,1.57,0,0,0,1087.11,499.21Z" transform="translate(30 18.37)"/><path class="cls-4" d="M1105.32,499.21a1.57,1.57,0,1,0-1.56-1.57A1.57,1.57,0,0,0,1105.32,499.21Z" transform="translate(30 18.37)"/><path class="cls-4" d="M1123.53,499.21a1.57,1.57,0,1,0-1.56-1.57A1.57,1.57,0,0,0,1123.53,499.21Z" transform="translate(30 18.37)"/><path class="cls-4" d="M1141.74,499.21a1.57,1.57,0,1,0-1.57-1.57A1.57,1.57,0,0,0,1141.74,499.21Z" transform="translate(30 18.37)"/><path class="cls-4" d="M1160,499.21a1.57,1.57,0,1,0-1.57-1.57A1.56,1.56,0,0,0,1160,499.21Z" transform="translate(30 18.37)"/><path class="cls-4" d="M1178.16,499.21a1.57,1.57,0,1,0-1.57-1.57A1.56,1.56,0,0,0,1178.16,499.21Z" transform="translate(30 18.37)"/><path class="cls-4" d="M1196.36,499.21a1.57,1.57,0,1,0-1.56-1.57A1.57,1.57,0,0,0,1196.36,499.21Z" transform="translate(30 18.37)"/><path class="cls-4" d="M1214.57,499.21a1.57,1.57,0,1,0-1.56-1.57A1.57,1.57,0,0,0,1214.57,499.21Z" transform="translate(30 18.37)"/><path class="cls-4" d="M1232.78,499.21a1.57,1.57,0,1,0-1.56-1.57A1.57,1.57,0,0,0,1232.78,499.21Z" transform="translate(30 18.37)"/><path class="cls-4" d="M1087.11,517.42a1.57,1.57,0,1,0-1.56-1.57A1.57,1.57,0,0,0,1087.11,517.42Z" transform="translate(30 18.37)"/><path class="cls-4" d="M1105.32,517.42a1.57,1.57,0,1,0-1.56-1.57A1.57,1.57,0,0,0,1105.32,517.42Z" transform="translate(30 18.37)"/><path class="cls-4" d="M1123.53,517.42a1.57,1.57,0,1,0-1.56-1.57A1.57,1.57,0,0,0,1123.53,517.42Z" transform="translate(30 18.37)"/><path class="cls-4" d="M1141.74,517.42a1.57,1.57,0,1,0-1.57-1.57A1.57,1.57,0,0,0,1141.74,517.42Z" transform="translate(30 18.37)"/><path class="cls-4" d="M1160,517.42a1.57,1.57,0,1,0-1.57-1.57A1.56,1.56,0,0,0,1160,517.42Z" transform="translate(30 18.37)"/><path class="cls-4" d="M1178.16,517.42a1.57,1.57,0,1,0-1.57-1.57A1.56,1.56,0,0,0,1178.16,517.42Z" transform="translate(30 18.37)"/><path class="cls-4" d="M1196.36,517.42a1.57,1.57,0,1,0-1.56-1.57A1.57,1.57,0,0,0,1196.36,517.42Z" transform="translate(30 18.37)"/><path class="cls-4" d="M1214.57,517.42a1.57,1.57,0,1,0-1.56-1.57A1.57,1.57,0,0,0,1214.57,517.42Z" transform="translate(30 18.37)"/><path class="cls-4" d="M1232.78,517.42a1.57,1.57,0,1,0-1.56-1.57A1.57,1.57,0,0,0,1232.78,517.42Z" transform="translate(30 18.37)"/><path class="cls-4" d="M1087.11,535.63a1.57,1.57,0,1,0-1.56-1.57A1.57,1.57,0,0,0,1087.11,535.63Z" transform="translate(30 18.37)"/><path class="cls-4" d="M1105.32,535.63a1.57,1.57,0,1,0-1.56-1.57A1.57,1.57,0,0,0,1105.32,535.63Z" transform="translate(30 18.37)"/><path class="cls-4" d="M1123.53,535.63a1.57,1.57,0,1,0-1.56-1.57A1.57,1.57,0,0,0,1123.53,535.63Z" transform="translate(30 18.37)"/><path class="cls-4" d="M1141.74,535.63a1.57,1.57,0,1,0-1.57-1.57A1.57,1.57,0,0,0,1141.74,535.63Z" transform="translate(30 18.37)"/><path class="cls-4" d="M1160,535.63a1.57,1.57,0,1,0-1.57-1.57A1.56,1.56,0,0,0,1160,535.63Z" transform="translate(30 18.37)"/><path class="cls-4" d="M1178.16,535.63a1.57,1.57,0,1,0-1.57-1.57A1.56,1.56,0,0,0,1178.16,535.63Z" transform="translate(30 18.37)"/><path class="cls-4" d="M1196.36,535.63a1.57,1.57,0,1,0-1.56-1.57A1.57,1.57,0,0,0,1196.36,535.63Z" transform="translate(30 18.37)"/><path class="cls-4" d="M1214.57,535.63a1.57,1.57,0,1,0-1.56-1.57A1.57,1.57,0,0,0,1214.57,535.63Z" transform="translate(30 18.37)"/><path class="cls-4" d="M1232.78,535.63a1.57,1.57,0,1,0-1.56-1.57A1.57,1.57,0,0,0,1232.78,535.63Z" transform="translate(30 18.37)"/><path class="cls-4" d="M1087.11,553.83a1.57,1.57,0,1,0-1.56-1.56A1.56,1.56,0,0,0,1087.11,553.83Z" transform="translate(30 18.37)"/><path class="cls-4" d="M1105.32,553.83a1.57,1.57,0,1,0-1.56-1.56A1.56,1.56,0,0,0,1105.32,553.83Z" transform="translate(30 18.37)"/><path class="cls-4" d="M1123.53,553.83a1.57,1.57,0,1,0-1.56-1.56A1.56,1.56,0,0,0,1123.53,553.83Z" transform="translate(30 18.37)"/><path class="cls-4" d="M1141.74,553.83a1.57,1.57,0,1,0-1.57-1.56A1.57,1.57,0,0,0,1141.74,553.83Z" transform="translate(30 18.37)"/><path class="cls-4" d="M1160,553.83a1.57,1.57,0,1,0-1.57-1.56A1.56,1.56,0,0,0,1160,553.83Z" transform="translate(30 18.37)"/><path class="cls-4" d="M1178.16,553.83a1.57,1.57,0,1,0-1.57-1.56A1.56,1.56,0,0,0,1178.16,553.83Z" transform="translate(30 18.37)"/><path class="cls-4" d="M1196.36,553.83a1.57,1.57,0,1,0-1.56-1.56A1.56,1.56,0,0,0,1196.36,553.83Z" transform="translate(30 18.37)"/><path class="cls-4" d="M1214.57,553.83a1.57,1.57,0,1,0-1.56-1.56A1.56,1.56,0,0,0,1214.57,553.83Z" transform="translate(30 18.37)"/><path class="cls-4" d="M1232.78,553.83a1.57,1.57,0,1,0-1.56-1.56A1.56,1.56,0,0,0,1232.78,553.83Z" transform="translate(30 18.37)"/><path class="cls-4" d="M1087.11,572a1.57,1.57,0,1,0-1.56-1.56A1.56,1.56,0,0,0,1087.11,572Z" transform="translate(30 18.37)"/><path class="cls-4" d="M1105.32,572a1.57,1.57,0,1,0-1.56-1.56A1.56,1.56,0,0,0,1105.32,572Z" transform="translate(30 18.37)"/><path class="cls-4" d="M1123.53,572a1.57,1.57,0,1,0-1.56-1.56A1.56,1.56,0,0,0,1123.53,572Z" transform="translate(30 18.37)"/><path class="cls-4" d="M1141.74,572a1.57,1.57,0,1,0-1.57-1.56A1.57,1.57,0,0,0,1141.74,572Z" transform="translate(30 18.37)"/><path class="cls-4" d="M1160,572a1.57,1.57,0,1,0-1.57-1.56A1.56,1.56,0,0,0,1160,572Z" transform="translate(30 18.37)"/><path class="cls-4" d="M1178.16,572a1.57,1.57,0,1,0-1.57-1.56A1.56,1.56,0,0,0,1178.16,572Z" transform="translate(30 18.37)"/><path class="cls-4" d="M1196.36,572a1.57,1.57,0,1,0-1.56-1.56A1.56,1.56,0,0,0,1196.36,572Z" transform="translate(30 18.37)"/><path class="cls-4" d="M1214.57,572a1.57,1.57,0,1,0-1.56-1.56A1.56,1.56,0,0,0,1214.57,572Z" transform="translate(30 18.37)"/><path class="cls-4" d="M1232.78,572a1.57,1.57,0,1,0-1.56-1.56A1.56,1.56,0,0,0,1232.78,572Z" transform="translate(30 18.37)"/><path class="cls-4" d="M1087.11,590.25a1.57,1.57,0,1,0-1.56-1.56A1.56,1.56,0,0,0,1087.11,590.25Z" transform="translate(30 18.37)"/><path class="cls-4" d="M1105.32,590.25a1.57,1.57,0,1,0-1.56-1.56A1.56,1.56,0,0,0,1105.32,590.25Z" transform="translate(30 18.37)"/><path class="cls-4" d="M1123.53,590.25a1.57,1.57,0,1,0-1.56-1.56A1.56,1.56,0,0,0,1123.53,590.25Z" transform="translate(30 18.37)"/><path class="cls-4" d="M1141.74,590.25a1.57,1.57,0,1,0-1.57-1.56A1.57,1.57,0,0,0,1141.74,590.25Z" transform="translate(30 18.37)"/><path class="cls-4" d="M1160,590.25a1.57,1.57,0,1,0-1.57-1.56A1.56,1.56,0,0,0,1160,590.25Z" transform="translate(30 18.37)"/><path class="cls-4" d="M1178.16,590.25a1.57,1.57,0,1,0-1.57-1.56A1.56,1.56,0,0,0,1178.16,590.25Z" transform="translate(30 18.37)"/><path class="cls-4" d="M1196.36,590.25a1.57,1.57,0,1,0-1.56-1.56A1.56,1.56,0,0,0,1196.36,590.25Z" transform="translate(30 18.37)"/><path class="cls-4" d="M1214.57,590.25a1.57,1.57,0,1,0-1.56-1.56A1.56,1.56,0,0,0,1214.57,590.25Z" transform="translate(30 18.37)"/><path class="cls-4" d="M1232.78,590.25a1.57,1.57,0,1,0-1.56-1.56A1.56,1.56,0,0,0,1232.78,590.25Z" transform="translate(30 18.37)"/><path class="cls-4" d="M1087.11,608.46a1.57,1.57,0,1,0-1.56-1.57A1.57,1.57,0,0,0,1087.11,608.46Z" transform="translate(30 18.37)"/><path class="cls-4" d="M1105.32,608.46a1.57,1.57,0,1,0-1.56-1.57A1.57,1.57,0,0,0,1105.32,608.46Z" transform="translate(30 18.37)"/><path class="cls-4" d="M1123.53,608.46a1.57,1.57,0,1,0-1.56-1.57A1.57,1.57,0,0,0,1123.53,608.46Z" transform="translate(30 18.37)"/><path class="cls-4" d="M1141.74,608.46a1.57,1.57,0,1,0-1.57-1.57A1.57,1.57,0,0,0,1141.74,608.46Z" transform="translate(30 18.37)"/><path class="cls-4" d="M1160,608.46a1.57,1.57,0,1,0-1.57-1.57A1.56,1.56,0,0,0,1160,608.46Z" transform="translate(30 18.37)"/><path class="cls-4" d="M1178.16,608.46a1.57,1.57,0,1,0-1.57-1.57A1.56,1.56,0,0,0,1178.16,608.46Z" transform="translate(30 18.37)"/><path class="cls-4" d="M1196.36,608.46a1.57,1.57,0,1,0-1.56-1.57A1.57,1.57,0,0,0,1196.36,608.46Z" transform="translate(30 18.37)"/><path class="cls-4" d="M1214.57,608.46a1.57,1.57,0,1,0-1.56-1.57A1.57,1.57,0,0,0,1214.57,608.46Z" transform="translate(30 18.37)"/><path class="cls-4" d="M1232.78,608.46a1.57,1.57,0,1,0-1.56-1.57A1.57,1.57,0,0,0,1232.78,608.46Z" transform="translate(30 18.37)"/><path class="cls-4" d="M1087.11,626.67a1.57,1.57,0,1,0-1.56-1.57A1.57,1.57,0,0,0,1087.11,626.67Z" transform="translate(30 18.37)"/><path class="cls-4" d="M1105.32,626.67a1.57,1.57,0,1,0-1.56-1.57A1.57,1.57,0,0,0,1105.32,626.67Z" transform="translate(30 18.37)"/><path class="cls-4" d="M1123.53,626.67a1.57,1.57,0,1,0-1.56-1.57A1.57,1.57,0,0,0,1123.53,626.67Z" transform="translate(30 18.37)"/><path class="cls-4" d="M1141.74,626.67a1.57,1.57,0,1,0-1.57-1.57A1.57,1.57,0,0,0,1141.74,626.67Z" transform="translate(30 18.37)"/><path class="cls-4" d="M1160,626.67a1.57,1.57,0,1,0-1.57-1.57A1.56,1.56,0,0,0,1160,626.67Z" transform="translate(30 18.37)"/><path class="cls-4" d="M1178.16,626.67a1.57,1.57,0,1,0-1.57-1.57A1.56,1.56,0,0,0,1178.16,626.67Z" transform="translate(30 18.37)"/><path class="cls-4" d="M1196.36,626.67a1.57,1.57,0,1,0-1.56-1.57A1.57,1.57,0,0,0,1196.36,626.67Z" transform="translate(30 18.37)"/><path class="cls-4" d="M1214.57,626.67a1.57,1.57,0,1,0-1.56-1.57A1.57,1.57,0,0,0,1214.57,626.67Z" transform="translate(30 18.37)"/><path class="cls-4" d="M1232.78,626.67a1.57,1.57,0,1,0-1.56-1.57A1.57,1.57,0,0,0,1232.78,626.67Z" transform="translate(30 18.37)"/><path class="cls-4" d="M50.59,98.85A1.57,1.57,0,1,0,49,97.29,1.56,1.56,0,0,0,50.59,98.85Z" transform="translate(30 18.37)"/><path class="cls-4" d="M68.8,98.85a1.57,1.57,0,1,0-1.57-1.56A1.56,1.56,0,0,0,68.8,98.85Z" transform="translate(30 18.37)"/><path class="cls-4" d="M87,98.85a1.57,1.57,0,1,0-1.57-1.56A1.56,1.56,0,0,0,87,98.85Z" transform="translate(30 18.37)"/><path class="cls-4" d="M50.59,117.06A1.57,1.57,0,1,0,49,115.49,1.56,1.56,0,0,0,50.59,117.06Z" transform="translate(30 18.37)"/><path class="cls-4" d="M68.8,117.06a1.57,1.57,0,1,0-1.57-1.57A1.56,1.56,0,0,0,68.8,117.06Z" transform="translate(30 18.37)"/><path class="cls-4" d="M87,117.06a1.57,1.57,0,1,0-1.57-1.57A1.56,1.56,0,0,0,87,117.06Z" transform="translate(30 18.37)"/><path class="cls-4" d="M50.59,135.27A1.57,1.57,0,1,0,49,133.7,1.56,1.56,0,0,0,50.59,135.27Z" transform="translate(30 18.37)"/><path class="cls-4" d="M68.8,135.27a1.57,1.57,0,1,0-1.57-1.57A1.56,1.56,0,0,0,68.8,135.27Z" transform="translate(30 18.37)"/><path class="cls-4" d="M87,135.27a1.57,1.57,0,1,0-1.57-1.57A1.56,1.56,0,0,0,87,135.27Z" transform="translate(30 18.37)"/><path class="cls-4" d="M50.59,153.48A1.57,1.57,0,1,0,49,151.91,1.56,1.56,0,0,0,50.59,153.48Z" transform="translate(30 18.37)"/><path class="cls-4" d="M68.8,153.48a1.57,1.57,0,1,0-1.57-1.57A1.56,1.56,0,0,0,68.8,153.48Z" transform="translate(30 18.37)"/><path class="cls-4" d="M87,153.48a1.57,1.57,0,1,0-1.57-1.57A1.56,1.56,0,0,0,87,153.48Z" transform="translate(30 18.37)"/><path class="cls-4" d="M50.59,171.68A1.57,1.57,0,1,0,49,170.12,1.56,1.56,0,0,0,50.59,171.68Z" transform="translate(30 18.37)"/><path class="cls-4" d="M68.8,171.68a1.57,1.57,0,1,0-1.57-1.56A1.56,1.56,0,0,0,68.8,171.68Z" transform="translate(30 18.37)"/><path class="cls-4" d="M87,171.68a1.57,1.57,0,1,0-1.57-1.56A1.56,1.56,0,0,0,87,171.68Z" transform="translate(30 18.37)"/><path class="cls-4" d="M50.59,189.89A1.57,1.57,0,1,0,49,188.33,1.56,1.56,0,0,0,50.59,189.89Z" transform="translate(30 18.37)"/><path class="cls-4" d="M68.8,189.89a1.57,1.57,0,1,0-1.57-1.56A1.56,1.56,0,0,0,68.8,189.89Z" transform="translate(30 18.37)"/><path class="cls-4" d="M87,189.89a1.57,1.57,0,1,0-1.57-1.56A1.56,1.56,0,0,0,87,189.89Z" transform="translate(30 18.37)"/><path class="cls-4" d="M50.59,208.1A1.57,1.57,0,1,0,49,206.54,1.56,1.56,0,0,0,50.59,208.1Z" transform="translate(30 18.37)"/><path class="cls-4" d="M68.8,208.1a1.57,1.57,0,1,0-1.57-1.56A1.56,1.56,0,0,0,68.8,208.1Z" transform="translate(30 18.37)"/><path class="cls-4" d="M87,208.1a1.57,1.57,0,1,0-1.57-1.56A1.56,1.56,0,0,0,87,208.1Z" transform="translate(30 18.37)"/><path class="cls-4" d="M50.59,226.31A1.57,1.57,0,1,0,49,224.74,1.56,1.56,0,0,0,50.59,226.31Z" transform="translate(30 18.37)"/><path class="cls-4" d="M68.8,226.31a1.57,1.57,0,1,0-1.57-1.57A1.56,1.56,0,0,0,68.8,226.31Z" transform="translate(30 18.37)"/><path class="cls-4" d="M87,226.31a1.57,1.57,0,1,0-1.57-1.57A1.56,1.56,0,0,0,87,226.31Z" transform="translate(30 18.37)"/><path class="cls-4" d="M50.59,244.52A1.57,1.57,0,1,0,49,243,1.56,1.56,0,0,0,50.59,244.52Z" transform="translate(30 18.37)"/><path class="cls-4" d="M68.8,244.52A1.57,1.57,0,1,0,67.23,243,1.56,1.56,0,0,0,68.8,244.52Z" transform="translate(30 18.37)"/><path class="cls-4" d="M87,244.52A1.57,1.57,0,1,0,85.44,243,1.56,1.56,0,0,0,87,244.52Z" transform="translate(30 18.37)"/><path class="cls-4" d="M50.59,262.73A1.57,1.57,0,1,0,49,261.16,1.56,1.56,0,0,0,50.59,262.73Z" transform="translate(30 18.37)"/><path class="cls-4" d="M68.8,262.73a1.57,1.57,0,1,0-1.57-1.57A1.56,1.56,0,0,0,68.8,262.73Z" transform="translate(30 18.37)"/><path class="cls-4" d="M87,262.73a1.57,1.57,0,1,0-1.57-1.57A1.56,1.56,0,0,0,87,262.73Z" transform="translate(30 18.37)"/><path class="cls-4" d="M50.59,280.93A1.57,1.57,0,1,0,49,279.37,1.56,1.56,0,0,0,50.59,280.93Z" transform="translate(30 18.37)"/><path class="cls-4" d="M68.8,280.93a1.57,1.57,0,1,0-1.57-1.56A1.56,1.56,0,0,0,68.8,280.93Z" transform="translate(30 18.37)"/><path class="cls-4" d="M87,280.93a1.57,1.57,0,1,0-1.57-1.56A1.56,1.56,0,0,0,87,280.93Z" transform="translate(30 18.37)"/><path class="cls-4" d="M50.59,299.14A1.57,1.57,0,1,0,49,297.58,1.56,1.56,0,0,0,50.59,299.14Z" transform="translate(30 18.37)"/><path class="cls-4" d="M68.8,299.14a1.57,1.57,0,1,0-1.57-1.56A1.56,1.56,0,0,0,68.8,299.14Z" transform="translate(30 18.37)"/><path class="cls-4" d="M87,299.14a1.57,1.57,0,1,0-1.57-1.56A1.56,1.56,0,0,0,87,299.14Z" transform="translate(30 18.37)"/><path class="cls-4" d="M50.59,317.35A1.57,1.57,0,1,0,49,315.79,1.56,1.56,0,0,0,50.59,317.35Z" transform="translate(30 18.37)"/><path class="cls-4" d="M68.8,317.35a1.57,1.57,0,1,0-1.57-1.56A1.56,1.56,0,0,0,68.8,317.35Z" transform="translate(30 18.37)"/><path class="cls-4" d="M87,317.35a1.57,1.57,0,1,0-1.57-1.56A1.56,1.56,0,0,0,87,317.35Z" transform="translate(30 18.37)"/><path class="cls-4" d="M50.59,335.56A1.57,1.57,0,1,0,49,334,1.56,1.56,0,0,0,50.59,335.56Z" transform="translate(30 18.37)"/><path class="cls-4" d="M68.8,335.56A1.57,1.57,0,1,0,67.23,334,1.56,1.56,0,0,0,68.8,335.56Z" transform="translate(30 18.37)"/><path class="cls-4" d="M87,335.56A1.57,1.57,0,1,0,85.44,334,1.56,1.56,0,0,0,87,335.56Z" transform="translate(30 18.37)"/><path class="cls-4" d="M50.59,353.77A1.57,1.57,0,1,0,49,352.2,1.56,1.56,0,0,0,50.59,353.77Z" transform="translate(30 18.37)"/><path class="cls-4" d="M68.8,353.77a1.57,1.57,0,1,0-1.57-1.57A1.56,1.56,0,0,0,68.8,353.77Z" transform="translate(30 18.37)"/><path class="cls-4" d="M87,353.77a1.57,1.57,0,1,0-1.57-1.57A1.56,1.56,0,0,0,87,353.77Z" transform="translate(30 18.37)"/><path class="cls-4" d="M50.59,372A1.57,1.57,0,1,0,49,370.41,1.56,1.56,0,0,0,50.59,372Z" transform="translate(30 18.37)"/><path class="cls-4" d="M68.8,372a1.57,1.57,0,1,0-1.57-1.57A1.56,1.56,0,0,0,68.8,372Z" transform="translate(30 18.37)"/><path class="cls-4" d="M87,372a1.57,1.57,0,1,0-1.57-1.57A1.56,1.56,0,0,0,87,372Z" transform="translate(30 18.37)"/><path class="cls-4" d="M50.59,390.18A1.57,1.57,0,1,0,49,388.62,1.56,1.56,0,0,0,50.59,390.18Z" transform="translate(30 18.37)"/><path class="cls-4" d="M68.8,390.18a1.57,1.57,0,1,0-1.57-1.56A1.56,1.56,0,0,0,68.8,390.18Z" transform="translate(30 18.37)"/><path class="cls-4" d="M87,390.18a1.57,1.57,0,1,0-1.57-1.56A1.56,1.56,0,0,0,87,390.18Z" transform="translate(30 18.37)"/><path class="cls-4" d="M50.59,408.39A1.57,1.57,0,1,0,49,406.83,1.56,1.56,0,0,0,50.59,408.39Z" transform="translate(30 18.37)"/><path class="cls-4" d="M68.8,408.39a1.57,1.57,0,1,0-1.57-1.56A1.56,1.56,0,0,0,68.8,408.39Z" transform="translate(30 18.37)"/><path class="cls-4" d="M87,408.39a1.57,1.57,0,1,0-1.57-1.56A1.56,1.56,0,0,0,87,408.39Z" transform="translate(30 18.37)"/><path class="cls-4" d="M50.59,426.6A1.57,1.57,0,1,0,49,425,1.56,1.56,0,0,0,50.59,426.6Z" transform="translate(30 18.37)"/><path class="cls-4" d="M68.8,426.6A1.57,1.57,0,1,0,67.23,425,1.56,1.56,0,0,0,68.8,426.6Z" transform="translate(30 18.37)"/><path class="cls-4" d="M87,426.6A1.57,1.57,0,1,0,85.44,425,1.56,1.56,0,0,0,87,426.6Z" transform="translate(30 18.37)"/><path class="cls-4" d="M50.59,444.81A1.57,1.57,0,1,0,49,443.24,1.56,1.56,0,0,0,50.59,444.81Z" transform="translate(30 18.37)"/><path class="cls-4" d="M68.8,444.81a1.57,1.57,0,1,0-1.57-1.57A1.56,1.56,0,0,0,68.8,444.81Z" transform="translate(30 18.37)"/><path class="cls-4" d="M87,444.81a1.57,1.57,0,1,0-1.57-1.57A1.56,1.56,0,0,0,87,444.81Z" transform="translate(30 18.37)"/><path class="cls-4" d="M50.59,463A1.57,1.57,0,1,0,49,461.45,1.56,1.56,0,0,0,50.59,463Z" transform="translate(30 18.37)"/><path class="cls-4" d="M68.8,463a1.57,1.57,0,1,0-1.57-1.57A1.56,1.56,0,0,0,68.8,463Z" transform="translate(30 18.37)"/><path class="cls-4" d="M87,463a1.57,1.57,0,1,0-1.57-1.57A1.56,1.56,0,0,0,87,463Z" transform="translate(30 18.37)"/><path class="cls-4" d="M50.59,481.23A1.57,1.57,0,1,0,49,479.66,1.56,1.56,0,0,0,50.59,481.23Z" transform="translate(30 18.37)"/><path class="cls-4" d="M68.8,481.23a1.57,1.57,0,1,0-1.57-1.57A1.56,1.56,0,0,0,68.8,481.23Z" transform="translate(30 18.37)"/><path class="cls-4" d="M87,481.23a1.57,1.57,0,1,0-1.57-1.57A1.56,1.56,0,0,0,87,481.23Z" transform="translate(30 18.37)"/><path class="cls-5" d="M183.44,152.53A45.58,45.58,0,1,1,229,107,45.63,45.63,0,0,1,183.44,152.53Zm0-88.12A42.54,42.54,0,1,0,226,107,42.59,42.59,0,0,0,183.44,64.41Z" transform="translate(30 18.37)"/><path class="cls-5" d="M1110,640.33a32.54,32.54,0,1,1,32.54-32.54A32.57,32.57,0,0,1,1110,640.33Zm0-62a29.51,29.51,0,1,0,29.51,29.5A29.54,29.54,0,0,0,1110,578.29Z" transform="translate(30 18.37)"/><path class="cls-5" d="M88.12,601.51a11,11,0,1,1,11-11A11,11,0,0,1,88.12,601.51Zm0-18.88a7.92,7.92,0,1,0,7.93,7.92A7.93,7.93,0,0,0,88.12,582.63Z" transform="translate(30 18.37)"/><path class="cls-5" d="M1090.49,95.43a19.73,19.73,0,1,1,19.72-19.72A19.75,19.75,0,0,1,1090.49,95.43Zm0-36.41a16.69,16.69,0,1,0,16.69,16.69A16.7,16.7,0,0,0,1090.49,59Z" transform="translate(30 18.37)"/><path class="cls-5" d="M966.17,159.5A25.8,25.8,0,1,1,992,133.7,25.82,25.82,0,0,1,966.17,159.5Zm0-48.56a22.76,22.76,0,1,0,22.76,22.76A22.79,22.79,0,0,0,966.17,110.94Z" transform="translate(30 18.37)"/><circle class="cls-5" cx="251.22" cy="189.83" r="7.14"/><circle class="cls-5" cx="1085.8" cy="534.22" r="7.14"/><circle class="cls-5" cx="999.74" cy="423.19" r="3.57"/><circle class="cls-5" cx="1234.15" cy="466.75" r="3.57"/><circle class="cls-5" cx="154.16" cy="182.69" r="3.57"/><circle class="cls-5" cx="1169.55" cy="125.32" r="7.14"/><circle class="cls-5" cx="143.37" cy="619.88" r="7.14"/></g></g></g></svg>